<svg xmlns="http://www.w3.org/2000/svg" viewBox="0 0 32 32"><path d="M32,7.73H0L13.8,23.25a2.88,2.88,0,0,0,4.4,0Z" fill="#81b3d3"/><polygon points="7.41 7.86 15.9 17.86 24.36 7.92 7.41 7.86" fill="#23a9e1"/><path d="M20.92,10.71h-2.6c1-1.19,1.49-1.06,2.6,0Z" fill="#fff"/><path d="M13.86,11.62h4.58c-.34-.21-1.15-1.21-1.6-.83,0,0-1.29-1.52-2.11-.78s-1.05-.08-1.86.43.54,1,1,1.18Z" fill="#fff"/><path d="M16,7.74H7.23v3.85L15.9,22.14l.06-.08,8.7-10.35v-4Zm0,9.78-.06.07L7.87,8H24.06Z" fill="#491213"/><path d="M15.9,17.59l.06-.07L20.69,12c-1.18.17-2,1-3.19.85-.58-.09-.6-.43-.77-.76s-.33-.23-.59-.33-.39-.3-.89-.18-.48.77-1,.73c-.29,0-.31-.42-.73-.94-1.08-1.3-2.08-1.12-2.78.08Z" fill="#491213"/><polygon points="15.21 19.89 15.9 18.78 16.59 19.89 15.9 21.01 15.21 19.89" fill="#23a9e1"/><path d="M21.36,11.21A10.68,10.68,0,0,0,19.74,9.9,7.34,7.34,0,0,0,15.9,8.58a6.9,6.9,0,0,0-3.79,1.3,9.16,9.16,0,0,0-1.58,1.31l-.13-.11A10,10,0,0,1,12,9.74,7.18,7.18,0,0,1,15.9,8.42a7.53,7.53,0,0,1,3.93,1.34,11.51,11.51,0,0,1,1.65,1.33Z" fill="#491213"/><rect x="8.29" y="7.94" width="0.13" height="1.14" fill="#491213"/><rect x="9.28" y="7.89" width="0.13" height="2.17" fill="#491213"/><rect x="10.35" y="7.91" width="0.13" height="3.16" fill="#491213"/><rect x="11.45" y="7.89" width="0.13" height="2.31" fill="#491213"/><rect x="12.59" y="7.87" width="0.13" height="1.57" fill="#491213"/><rect x="13.77" y="7.92" width="0.13" height="0.97" fill="#491213"/><rect x="14.86" y="7.89" width="0.13" height="0.7" fill="#491213"/><rect x="10.9" y="7.91" width="0.13" height="2.42" transform="translate(-2.96 6.02) rotate(-27.2)" fill="#491213"/><rect x="12.03" y="7.84" width="0.13" height="1.81" transform="translate(-2.81 9.59) rotate(-39.09)" fill="#491213"/><rect x="13.1" y="7.82" width="0.13" height="1.37" transform="translate(-1.93 12.72) rotate(-48.45)" fill="#491213"/><rect x="14.32" y="7.71" width="0.13" height="1.21" transform="translate(0.6 17.58) rotate(-63.94)" fill="#491213"/><rect x="15.34" y="7.73" width="0.13" height="1.07" transform="translate(1.43 18.78) rotate(-65.17)" fill="#491213"/><rect x="23.37" y="7.95" width="0.13" height="0.99" fill="#491213"/><rect x="22.39" y="7.86" width="0.13" height="2.22" fill="#491213"/><rect x="21.32" y="7.95" width="0.13" height="3.16" fill="#491213"/><rect x="20.22" y="7.91" width="0.13" height="2.27" fill="#491213"/><rect x="19.08" y="7.9" width="0.13" height="1.54" fill="#491213"/><rect x="17.89" y="7.85" width="0.13" height="1.04" fill="#491213"/><rect x="16.78" y="7.93" width="0.17" height="0.66" fill="#491213"/><rect x="19.64" y="9.04" width="2.39" height="0.13" transform="translate(3.19 23.45) rotate(-62.73)" fill="#491213"/><rect x="18.81" y="8.67" width="1.79" height="0.13" transform="translate(0.45 18.44) rotate(-50.64)" fill="#491213"/><rect x="17.95" y="8.43" width="1.37" height="0.13" transform="translate(-0.95 14.5) rotate(-41.56)" fill="#491213"/><rect x="16.81" y="8.24" width="1.21" height="0.13" transform="translate(-1.88 8.48) rotate(-26.01)" fill="#491213"/><rect x="15.85" y="8.2" width="1.07" height="0.13" transform="translate(-1.96 7.63) rotate(-24.78)" fill="#491213"/><path d="M11.22,13.27a.45.45,0,0,1,.14.36c0,.1-.16.26,0,.31l.38-.48a5.83,5.83,0,0,1-.93-1.11l-.54.3c0,.11.22,0,.31,0a.5.5,0,0,1,.34.2c-.3.25-1,.86-1.09.87s-.19-.1-.19,0,.14.17.17.2l.38.46c.11-.05,0-.13,0-.22s.84-.73,1-.89Z" fill="#fff"/><path d="M10.32,12.07c.08,0,.11.07.16,0l-.42-.5c-.06-.08-.14-.16-.12,0a6.24,6.24,0,0,1-1.11,1c-.08,0-.13-.07-.19,0L9,13l.12.16c.06.05,0-.12,0-.11s.09-.16.15-.21A9.73,9.73,0,0,1,10.32,12.07Z" fill="#fff"/><path d="M8.82,11.91a.56.56,0,0,1-.73-.35.8.8,0,0,1,.36-.82.48.48,0,0,1,.75.14.58.58,0,0,1,0,.43c0,.09-.1.17,0,.22L9.64,11c-.19-.11-.26-.29-.4-.45a1,1,0,0,0-.6-.39,1,1,0,0,0-1,.9,1,1,0,0,0,.21.69c.13.17.32.28.42.47A3.26,3.26,0,0,0,8.85,12l0-.06Z" fill="#fff"/><path d="M15.55,18.15a7.6,7.6,0,0,1-.78-.91l-.06-.07,0,0s0,.1,0,.15a7.31,7.31,0,0,1-1,.89c-.09.06-.2,0-.25.05a7.74,7.74,0,0,0,.51.62c.09,0,0-.14,0-.18a5.29,5.29,0,0,1,.61-.55c.06,0,.12.08.15.13a.29.29,0,0,1,.05.27c0,.06-.12.15,0,.2.1-.13.4-.47.45-.53s-.1,0-.08,0a.18.18,0,0,1-.19,0,2.61,2.61,0,0,1-.17-.2.75.75,0,0,1,.26-.19c.15,0,.28.26.3.36a.61.61,0,0,1,0,.3c0,.07-.08.12,0,.16l.36-.5a.1.1,0,0,1-.07,0Z" fill="#fff"/><path d="M13.8,17.45a.91.91,0,0,0,.13-1.26.91.91,0,1,0-1.47,1.07.94.94,0,0,0,1.34.19C14,17.28,13.78,17.46,13.8,17.45Zm-.08-.82a1.27,1.27,0,0,1-.64.63c-.31.12-.53-.14-.4-.44a1.27,1.27,0,0,1,.64-.63c.32-.12.52.15.4.44S13.73,16.6,13.72,16.63Z" fill="#fff"/><path d="M12.7,14.94c.08,0,.16.1.21,0l-.38-.45c-.1,0,0,.09,0,.16s-.44.14-.55.16a3.06,3.06,0,0,1,.2-.49c.1-.08.15.07.22,0-.15-.19-.31-.38-.47-.56s-.09-.18-.17-.12a1,1,0,0,1,0,.3,2.32,2.32,0,0,1-.33.76,2.77,2.77,0,0,1-.46.36c-.1,0-.15-.1-.21,0l.42.5a1.12,1.12,0,0,0,.13.16c.09,0,0-.16,0-.19a1.59,1.59,0,0,1,.6-.49,3.66,3.66,0,0,1,.81-.09Z" fill="#fff"/><path d="M11.62,11.66c-.69,0-.4-.68.07-.83a2.47,2.47,0,0,1,1.69.58,6.65,6.65,0,0,1-1.62.15c0-.53-.17-.34-.14.1Z" fill="#dc6243"/><path d="M11.8,12.49c-.35-.27-.24-.91.3-.71.69.35-.15.55-.3.71Z" fill="#dc6243"/><path d="M13.25,13.81c-1.48,0-.48-2.29,0-2.15s.51,2.16,0,2.15Z" fill="#dc6243"/><path d="M14.3,13.06c-.14.43-.41.51-.38,0s.43-.45.85-.68.54-.9,1.14-.48c.26.19.57,0,.66.32,0,0-.78,1.76-.35,1.76-.85,0-.48-1-.15-1.69-.32.15-.83,1.14-.41,1.31-.22.29-.89.67-1.24.39s-.12-.57-.12-.92Z" fill="#dc6243"/><path d="M15,14.71c-.6.18-1.39-.21-.43-.4.6-.12,1.23.13.43.4Z" fill="#dc6243"/><path d="M15.75,14.69c-.12-.29.1-.63.46-.38s-.14.53-.46.38Z" fill="#dc6243"/><path d="M15.25,15.49c-.42-.13-1.81-.1-.9-.48.28-.11,1.74,0,.9.48Z" fill="#dc6243"/><path d="M15.8,15.43c0-.17-.09-.46.23-.34s-.23.46-.23.34Z" fill="#dc6243"/><path d="M17,16.06a.49.49,0,0,0-.73,0c-.31-.57-1.43-.38-1.95-.46.28.69,2.55.82,2.68.46Z" fill="#dc6243"/><path d="M16.71,16.47a6.49,6.49,0,0,0-1.65,0c.31.08,1.09.3.37.5a.57.57,0,0,0,1,0c-.12-.06-.18-.13-.27-.18.29-.06.55-.22.59-.36Z" fill="#dc6243"/><path d="M17.33,15.81c-.91-.54-.68-.93.06-1.3.38-.2,1.25-.9,1.62-.66l-1.68,2Z" fill="#dc6243"/><path d="M16.68,14.56c-.77-.79,1.15-.72,1.46-1,.22.07,1.84-1.42,2.24-1.33-.29.33-.9,1.39-1.34,1.39a1.25,1.25,0,0,0-.93.19,6.49,6.49,0,0,1-1.43.74Z" fill="#f49774"/><path d="M16.93,13.59c-.42.23-.82-.67-.09-.58.48.06,1,0,1.43,0a1.48,1.48,0,0,1-1.34.54Z" fill="#f4b1a4"/><rect x="15.8" y="7.98" width="0.16" height="0.57" fill="#491213"/><path d="M19.1,16.73a.79.79,0,0,1,0,.34c0,.15-.16.51-.37.4a2.76,2.76,0,0,1-.54-.43c.13-.16.25-.3.48-.22.07,0,.12,0,.06-.05a3.66,3.66,0,0,0-.56-.31c-.05.06.09.15,0,.25a.8.8,0,0,1-.15.21c-.13-.1-.33-.21-.19-.38a.64.64,0,0,1,.36-.23c.1,0,.32.06.35,0L18,16c0,.14-.58.78-.71.94s-.11.1-.11.13.1,0,.11,0a7.09,7.09,0,0,1,1.2.94s0,.09,0,.12,0,0,0,0a8.32,8.32,0,0,1,.92-1.06l-.4-.63C19,16.53,19.08,16.65,19.1,16.73Z" fill="#fff"/><path d="M18,17.88c-.35-.23-1,.22-1.05.26s-.31-.09-.21-.26a.48.48,0,0,1,.39-.22s.23,0,.25,0,0,0,0-.06l-.44-.3c0,.18-.24.3-.36.42a.82.82,0,0,0-.26.54.54.54,0,0,0,.29.46.56.56,0,0,0,.57-.09,2.9,2.9,0,0,1,.33-.2c.17-.08.4,0,.34.22a.64.64,0,0,1-.42.4.59.59,0,0,1-.32,0c-.07,0-.17-.12-.21,0l.6.44a.42.42,0,0,1,.18-.27,2,2,0,0,0,.35-.37A.68.68,0,0,0,18,17.88Z" fill="#fff"/><path d="M18,17.88c.16.1-.1-.09,0,0Z" fill="#fff"/><path d="M23.05,11.48Z" fill="#fff"/><path d="M24.33,11.1c-.12.13-1.44-.4-1.54-.47s-.05-.23-.12-.14l-.21.25-.21.26c-.05.05-.09.07,0,.12s.93,1.26.86,1.45-1.19-.87-1.21-.93,0-.17,0-.16-.13.15-.15.18-.1.13-.16.19.09,0,.17,0a2.4,2.4,0,0,1,.38.29l-.5,0c-.15,0-.07-.12-.17-.16l-.39.47-.23.28s0,0,0,0,0,0,.09,0a7.69,7.69,0,0,1,1.17.89c.06.08,0,.17.07.21l.3-.38s0,0,0,0-.08,0-.17,0a10.52,10.52,0,0,1-1-.79l1.4-.06s.2.16.18.21-.07.1,0,.14l.25-.3h0l0,0a.08.08,0,0,0,0,0l0,0c.07-.08.31-.34.28-.37s-.12.08-.22,0a2,2,0,0,1-.25-.37c-.05-.07.1-.15.16-.19s.56-.2.6.06c0,0-.05.09,0,.12s0,0,0,0l.57-.68Zm-1.26.37h0a1.09,1.09,0,0,0-.17.13l-.26-.46.6.25Z" fill="#fff"/><path d="M21.4,13.39a.94.94,0,1,0,.1,1.31A.93.93,0,0,0,21.4,13.39Zm0,1.14h0c-.21.22-.57,0-.77-.12S20,14,20.25,13.7s.54,0,.72.09.59.44.39.72C21.38,14.49,21.38,14.48,21.35,14.53Z" fill="#fff"/><path d="M21.4,13.39c.2.17,0,0,0,0Z" fill="#fff"/><path d="M21.34,14.53h0v0Z" fill="#fff"/><path d="M20.27,15s0,0,0,0a1,1,0,0,0-1.44.2l-.51.61c.06.09.13,0,.22,0s1.07.87,1.08.92,0,.09,0,.15a6.87,6.87,0,0,0,.84-1.06A.74.74,0,0,0,20.27,15ZM20,16.12c0,.05,0,0-.11.11a4.22,4.22,0,0,1-1.06-.85.71.71,0,0,1,.61-.22C19.85,15.25,20.37,15.72,20,16.12Z" fill="#fff"/></svg>